<mxfile host="drawio-plugin" modified="2021-07-13T04:06:54.101Z" agent="5.0 (Windows NT 6.2; Win64; x64) AppleWebKit/537.36 (KHTML, like Gecko) Chrome/87.0.4280.141 Safari/537.36" etag="CoWGNhXQ8uwzgWWr2DU9" version="14.7.4" type="embed"><diagram id="23iRSUPoRavnBvh4doch" name="Common description"><mxGraphModel dx="901" dy="621" grid="1" gridSize="10" guides="1" tooltips="1" connect="1" arrows="1" fold="1" page="1" pageScale="1" pageWidth="827" pageHeight="1169" math="0" shadow="0"><root><mxCell id="0"/><mxCell id="1" parent="0"/><mxCell id="8" style="edgeStyle=none;rounded=0;orthogonalLoop=1;jettySize=auto;html=1;endArrow=none;endFill=0;strokeColor=#277116;strokeWidth=2;" edge="1" parent="1" source="3" target="6"><mxGeometry relative="1" as="geometry"/></mxCell><mxCell id="3" value="" style="points=[[0,0,0],[0.25,0,0],[0.5,0,0],[0.75,0,0],[1,0,0],[0,1,0],[0.25,1,0],[0.5,1,0],[0.75,1,0],[1,1,0],[0,0.25,0],[0,0.5,0],[0,0.75,0],[1,0.25,0],[1,0.5,0],[1,0.75,0]];outlineConnect=0;fontColor=#232F3E;gradientColor=#517DFD;gradientDirection=north;fillColor=#2F29AF;strokeColor=#ffffff;dashed=0;verticalLabelPosition=bottom;verticalAlign=top;align=center;html=1;fontSize=12;fontStyle=0;aspect=fixed;shape=mxgraph.aws4.resourceIcon;resIcon=mxgraph.aws4.ground_station;" vertex="1" parent="1"><mxGeometry x="360" y="240" width="78" height="78" as="geometry"/></mxCell><mxCell id="4" value="" style="points=[[0,0,0],[0.25,0,0],[0.5,0,0],[0.75,0,0],[1,0,0],[0,1,0],[0.25,1,0],[0.5,1,0],[0.75,1,0],[1,1,0],[0,0.25,0],[0,0.5,0],[0,0.75,0],[1,0.25,0],[1,0.5,0],[1,0.75,0]];outlineConnect=0;fontColor=#232F3E;gradientColor=#517DFD;gradientDirection=north;fillColor=#2F29AF;strokeColor=#ffffff;dashed=0;verticalLabelPosition=bottom;verticalAlign=top;align=center;html=1;fontSize=12;fontStyle=0;aspect=fixed;shape=mxgraph.aws4.resourceIcon;resIcon=mxgraph.aws4.ground_station;" vertex="1" parent="1"><mxGeometry x="520" y="120" width="78" height="78" as="geometry"/></mxCell><mxCell id="9" style="edgeStyle=none;rounded=0;orthogonalLoop=1;jettySize=auto;html=1;endArrow=none;endFill=0;strokeColor=#277116;strokeWidth=2;" edge="1" parent="1" source="5" target="6"><mxGeometry relative="1" as="geometry"/></mxCell><mxCell id="13" style="edgeStyle=none;rounded=0;orthogonalLoop=1;jettySize=auto;html=1;endArrow=none;endFill=0;strokeWidth=2;strokeColor=#277116;" edge="1" parent="1" source="5" target="12"><mxGeometry relative="1" as="geometry"/></mxCell><mxCell id="5" value="" style="points=[[0,0,0],[0.25,0,0],[0.5,0,0],[0.75,0,0],[1,0,0],[0,1,0],[0.25,1,0],[0.5,1,0],[0.75,1,0],[1,1,0],[0,0.25,0],[0,0.5,0],[0,0.75,0],[1,0.25,0],[1,0.5,0],[1,0.75,0]];outlineConnect=0;fontColor=#232F3E;gradientColor=#517DFD;gradientDirection=north;fillColor=#2F29AF;strokeColor=#ffffff;dashed=0;verticalLabelPosition=bottom;verticalAlign=top;align=center;html=1;fontSize=12;fontStyle=0;aspect=fixed;shape=mxgraph.aws4.resourceIcon;resIcon=mxgraph.aws4.ground_station;" vertex="1" parent="1"><mxGeometry x="360" width="78" height="78" as="geometry"/></mxCell><mxCell id="10" style="edgeStyle=none;rounded=0;orthogonalLoop=1;jettySize=auto;html=1;endArrow=none;endFill=0;strokeColor=#277116;strokeWidth=2;" edge="1" parent="1" source="6" target="4"><mxGeometry relative="1" as="geometry"/></mxCell><mxCell id="6" value="" style="points=[[0,0,0],[0.25,0,0],[0.5,0,0],[0.75,0,0],[1,0,0],[0,1,0],[0.25,1,0],[0.5,1,0],[0.75,1,0],[1,1,0],[0,0.25,0],[0,0.5,0],[0,0.75,0],[1,0.25,0],[1,0.5,0],[1,0.75,0]];outlineConnect=0;fontColor=#232F3E;gradientColor=#517DFD;gradientDirection=north;fillColor=#2F29AF;strokeColor=#ffffff;dashed=0;verticalLabelPosition=bottom;verticalAlign=top;align=center;html=1;fontSize=12;fontStyle=0;aspect=fixed;shape=mxgraph.aws4.resourceIcon;resIcon=mxgraph.aws4.ground_station;" vertex="1" parent="1"><mxGeometry x="360" y="120" width="78" height="78" as="geometry"/></mxCell><mxCell id="25" style="edgeStyle=orthogonalEdgeStyle;rounded=0;orthogonalLoop=1;jettySize=auto;html=1;endArrow=classic;endFill=1;strokeWidth=2;" edge="1" parent="1" source="11" target="24"><mxGeometry relative="1" as="geometry"/></mxCell><mxCell id="27" style="edgeStyle=orthogonalEdgeStyle;rounded=0;orthogonalLoop=1;jettySize=auto;html=1;endArrow=classic;endFill=1;strokeColor=#CC0000;strokeWidth=2;" edge="1" parent="1" source="11" target="26"><mxGeometry relative="1" as="geometry"/></mxCell><mxCell id="11" value="" style="outlineConnect=0;fontColor=#232F3E;gradientColor=none;strokeColor=none;dashed=0;verticalLabelPosition=bottom;verticalAlign=top;align=center;html=1;fontSize=12;fontStyle=0;aspect=fixed;pointerEvents=1;shape=mxgraph.aws4.mqtt_protocol;fillColor=#000000;" vertex="1" parent="1"><mxGeometry x="120" y="400" width="78" height="78" as="geometry"/></mxCell><mxCell id="20" style="edgeStyle=orthogonalEdgeStyle;rounded=0;orthogonalLoop=1;jettySize=auto;html=1;endArrow=classic;endFill=1;strokeWidth=2;strokeColor=#277116;" edge="1" parent="1" source="12" target="11"><mxGeometry relative="1" as="geometry"><Array as="points"><mxPoint x="145" y="39"/></Array></mxGeometry></mxCell><mxCell id="12" value="A" style="outlineConnect=0;fontColor=#232F3E;gradientColor=none;strokeColor=none;dashed=0;verticalLabelPosition=bottom;verticalAlign=top;align=center;html=1;fontSize=12;fontStyle=0;aspect=fixed;pointerEvents=1;shape=mxgraph.aws4.instance2;fillColor=#277116;" vertex="1" parent="1"><mxGeometry x="290" y="15" width="48" height="48" as="geometry"/></mxCell><mxCell id="17" value="" style="edgeStyle=none;rounded=0;orthogonalLoop=1;jettySize=auto;html=1;endArrow=none;endFill=0;strokeColor=#277116;strokeWidth=2;" edge="1" parent="1" source="14" target="6"><mxGeometry relative="1" as="geometry"/></mxCell><mxCell id="21" style="edgeStyle=orthogonalEdgeStyle;rounded=0;orthogonalLoop=1;jettySize=auto;html=1;endArrow=classic;endFill=1;strokeWidth=2;strokeColor=#CC0000;" edge="1" parent="1" source="14" target="11"><mxGeometry relative="1" as="geometry"><Array as="points"><mxPoint x="155" y="159"/></Array></mxGeometry></mxCell><mxCell id="14" value="B" style="outlineConnect=0;fontColor=#232F3E;gradientColor=none;strokeColor=none;dashed=0;verticalLabelPosition=bottom;verticalAlign=top;align=center;html=1;fontSize=12;fontStyle=0;aspect=fixed;pointerEvents=1;shape=mxgraph.aws4.instance2;fillColor=#CC0000;" vertex="1" parent="1"><mxGeometry x="290" y="135" width="48" height="48" as="geometry"/></mxCell><mxCell id="18" value="" style="edgeStyle=none;rounded=0;orthogonalLoop=1;jettySize=auto;html=1;endArrow=none;endFill=0;" edge="1" parent="1" source="15" target="3"><mxGeometry relative="1" as="geometry"/></mxCell><mxCell id="22" style="edgeStyle=orthogonalEdgeStyle;rounded=0;orthogonalLoop=1;jettySize=auto;html=1;endArrow=classic;endFill=1;strokeColor=#277116;strokeWidth=2;" edge="1" parent="1" source="15" target="11"><mxGeometry relative="1" as="geometry"><mxPoint x="160" y="400" as="targetPoint"/><Array as="points"><mxPoint x="165" y="279"/></Array></mxGeometry></mxCell><mxCell id="15" value="C" style="outlineConnect=0;fontColor=#232F3E;gradientColor=none;strokeColor=none;dashed=0;verticalLabelPosition=bottom;verticalAlign=top;align=center;html=1;fontSize=12;fontStyle=0;aspect=fixed;pointerEvents=1;shape=mxgraph.aws4.instance2;fillColor=#277116;" vertex="1" parent="1"><mxGeometry x="290" y="255" width="48" height="48" as="geometry"/></mxCell><mxCell id="19" value="" style="edgeStyle=none;rounded=0;orthogonalLoop=1;jettySize=auto;html=1;endArrow=none;endFill=0;" edge="1" parent="1" source="16" target="4"><mxGeometry relative="1" as="geometry"/></mxCell><mxCell id="23" style="edgeStyle=orthogonalEdgeStyle;rounded=0;orthogonalLoop=1;jettySize=auto;html=1;endArrow=classic;endFill=1;strokeColor=#277116;strokeWidth=2;" edge="1" parent="1" source="16" target="11"><mxGeometry relative="1" as="geometry"><Array as="points"><mxPoint x="500" y="244"/><mxPoint x="500" y="340"/><mxPoint x="175" y="340"/></Array></mxGeometry></mxCell><mxCell id="16" value="D" style="outlineConnect=0;fontColor=#232F3E;gradientColor=none;strokeColor=none;dashed=0;verticalLabelPosition=bottom;verticalAlign=top;align=center;html=1;fontSize=12;fontStyle=0;aspect=fixed;pointerEvents=1;shape=mxgraph.aws4.instance2;fillColor=#277116;" vertex="1" parent="1"><mxGeometry x="535" y="220" width="48" height="48" as="geometry"/></mxCell><mxCell id="24" value="" style="outlineConnect=0;fontColor=#232F3E;gradientColor=none;strokeColor=none;dashed=0;verticalLabelPosition=bottom;verticalAlign=top;align=center;html=1;fontSize=12;fontStyle=0;aspect=fixed;pointerEvents=1;shape=mxgraph.aws4.generic_database;fillColor=#000000;" vertex="1" parent="1"><mxGeometry x="130" y="520" width="59" height="78" as="geometry"/></mxCell><mxCell id="29" style="edgeStyle=orthogonalEdgeStyle;rounded=0;orthogonalLoop=1;jettySize=auto;html=1;endArrow=classic;endFill=1;strokeColor=#CC0000;strokeWidth=2;" edge="1" parent="1" source="26" target="28"><mxGeometry relative="1" as="geometry"/></mxCell><mxCell id="26" value="" style="outlineConnect=0;fontColor=#232F3E;gradientColor=none;strokeColor=none;dashed=0;verticalLabelPosition=bottom;verticalAlign=top;align=center;html=1;fontSize=12;fontStyle=0;aspect=fixed;pointerEvents=1;shape=mxgraph.aws4.external_toolkit;fillColor=#CC0000;" vertex="1" parent="1"><mxGeometry x="365" y="400" width="68" height="78" as="geometry"/></mxCell><mxCell id="28" value="" style="outlineConnect=0;fontColor=#232F3E;gradientColor=none;strokeColor=none;dashed=0;verticalLabelPosition=bottom;verticalAlign=top;align=center;html=1;fontSize=12;fontStyle=0;aspect=fixed;pointerEvents=1;shape=mxgraph.aws4.users;fillColor=#CC0000;" vertex="1" parent="1"><mxGeometry x="360" y="520" width="78" height="78" as="geometry"/></mxCell></root></mxGraphModel></diagram></mxfile>